<?xml version="1.0" standalone="no"?>
<!DOCTYPE svg PUBLIC "-//W3C//DTD SVG 20010904//EN"
 "http://www.w3.org/TR/2001/REC-SVG-20010904/DTD/svg10.dtd">
<svg version="1.0" xmlns="http://www.w3.org/2000/svg"
 width="606.000000pt" height="600.000000pt" viewBox="0 0 606.000000 600.000000"
 preserveAspectRatio="xMidYMid meet">

<g transform="translate(0.000000,600.000000) scale(0.100000,-0.100000)"
fill="orangered" stroke="none">
<path d="M2680 5681 c-8 -5 -60 -14 -115 -20 -151 -17 -213 -27 -290 -46 -38
-10 -87 -20 -107 -22 -21 -3 -38 -9 -38 -14 0 -5 -11 -9 -24 -9 -13 0 -37 -7
-52 -15 -16 -8 -37 -15 -47 -15 -9 0 -25 -4 -35 -9 -9 -5 -42 -17 -72 -26 -30
-10 -77 -29 -104 -42 -28 -12 -58 -23 -68 -23 -10 0 -18 -4 -18 -10 0 -5 -6
-10 -13 -10 -13 0 -108 -42 -137 -60 -20 -13 -98 -50 -104 -50 -3 0 -30 -16
-60 -35 -30 -19 -59 -35 -64 -35 -6 0 -20 -11 -33 -25 -13 -13 -28 -25 -33
-25 -5 0 -24 -11 -42 -25 -18 -14 -37 -25 -43 -25 -6 0 -11 -4 -11 -10 0 -5
-7 -10 -15 -10 -8 0 -15 -3 -15 -7 0 -5 -17 -19 -38 -33 -20 -14 -44 -32 -52
-41 -8 -9 -33 -28 -55 -43 -63 -42 -287 -267 -346 -346 -14 -19 -38 -46 -52
-60 -15 -14 -27 -31 -27 -38 0 -7 -9 -23 -21 -35 -12 -12 -32 -40 -46 -62 -14
-22 -30 -45 -37 -50 -14 -13 -30 -39 -53 -85 -9 -19 -33 -62 -53 -95 -41 -70
-44 -76 -100 -210 -4 -11 -15 -36 -24 -57 -9 -20 -16 -43 -16 -51 0 -9 -4 -18
-9 -21 -5 -3 -11 -20 -14 -38 -11 -68 -25 -118 -35 -130 -5 -7 -12 -33 -15
-58 -11 -87 -27 -171 -37 -190 -6 -11 -10 -130 -10 -300 0 -227 3 -288 15
-317 8 -19 15 -53 15 -74 0 -21 5 -41 10 -44 6 -3 10 -26 10 -51 0 -24 4 -52
9 -62 6 -9 18 -44 27 -77 10 -33 24 -71 31 -85 7 -14 13 -33 13 -42 0 -9 5
-20 10 -23 6 -3 10 -16 10 -28 0 -13 7 -33 16 -45 8 -12 12 -22 8 -22 -3 0 1
-11 10 -25 9 -13 16 -31 16 -39 0 -8 4 -16 8 -18 5 -1 29 -46 55 -98 25 -52
64 -119 86 -149 22 -30 43 -62 46 -73 4 -10 11 -18 16 -18 5 0 17 -17 26 -37
10 -21 29 -49 43 -63 14 -14 40 -46 59 -70 36 -47 336 -350 346 -350 4 0 35
-24 70 -52 36 -29 87 -71 115 -93 l51 -40 -4 -80 c-4 -78 -24 -176 -40 -191
-4 -4 -7 -18 -7 -31 0 -13 -4 -31 -9 -41 -5 -9 -17 -37 -26 -62 -29 -75 -37
-94 -46 -110 -5 -8 -24 -46 -43 -83 -19 -38 -40 -75 -47 -83 -6 -8 -8 -14 -5
-14 4 0 -4 -15 -18 -33 -15 -19 -26 -39 -26 -44 0 -6 -6 -16 -14 -22 -8 -7
-22 -27 -31 -46 -9 -19 -20 -35 -25 -35 -6 0 -10 -4 -10 -10 0 -5 -20 -38 -45
-73 -25 -36 -45 -69 -45 -73 0 -12 411 -5 426 7 10 8 60 17 196 36 21 3 42 11
49 19 6 8 24 14 40 14 15 0 31 4 34 10 3 5 17 10 29 10 13 0 29 7 36 15 7 8
21 15 31 15 10 0 21 5 24 10 3 6 17 10 30 10 13 0 26 4 30 9 5 9 22 19 98 58
17 9 52 30 77 47 25 17 52 36 61 41 54 34 96 64 108 79 7 9 18 16 22 16 17 0
92 72 160 153 l24 28 90 -11 c50 -6 119 -14 155 -18 36 -4 71 -11 77 -15 20
-13 284 -30 463 -31 165 0 369 15 445 34 22 5 63 10 92 10 28 0 55 4 58 10 3
5 23 10 43 10 20 1 48 7 62 15 14 8 44 14 67 15 23 0 45 4 48 10 3 5 19 10 34
10 16 0 34 7 41 15 7 8 27 15 46 15 18 0 35 4 38 9 3 5 22 12 41 15 19 4 35
11 35 16 0 6 13 10 29 10 17 0 33 5 36 10 3 6 14 10 24 10 10 0 39 11 65 25
26 14 54 25 63 25 9 0 24 6 32 13 9 8 32 20 51 27 19 8 52 24 72 37 21 13 44
23 53 23 8 0 15 4 15 8 0 4 26 21 58 37 63 33 145 86 150 98 2 4 8 7 14 7 5 0
24 11 42 25 18 14 36 25 40 25 5 0 34 21 66 48 32 26 72 58 90 72 101 79 262
234 312 300 14 19 47 57 72 84 25 27 46 52 46 57 0 4 6 14 13 21 22 24 114
152 133 188 10 19 22 37 25 40 3 3 11 20 18 38 8 18 27 51 42 72 16 22 29 46
29 54 0 8 4 17 8 20 4 3 14 28 22 56 8 28 20 56 27 62 7 6 13 17 13 24 0 8 4
22 10 32 17 31 38 87 45 117 21 100 26 120 35 129 6 6 10 31 10 57 0 26 5 51
10 54 6 3 10 26 10 49 0 24 7 57 15 72 12 24 15 80 15 311 0 190 -4 291 -12
310 -11 27 -23 91 -35 183 -3 25 -12 54 -19 65 -8 11 -14 31 -14 44 0 26 -16
84 -32 115 -5 10 -12 30 -14 45 -3 14 -9 30 -15 35 -5 6 -9 18 -9 27 0 9 -7
22 -15 29 -8 7 -15 22 -15 34 0 12 -4 26 -8 31 -5 6 -15 26 -22 45 -8 19 -26
55 -41 80 -51 84 -90 155 -96 173 -3 9 -9 17 -13 17 -5 0 -19 17 -31 38 -13
20 -35 53 -51 72 -15 19 -28 40 -28 47 0 6 -10 20 -23 30 -13 10 -46 47 -73
83 -57 76 -302 320 -320 320 -7 0 -17 6 -21 13 -4 6 -35 32 -68 56 -33 25 -61
48 -63 53 -2 4 -10 8 -18 8 -8 0 -14 5 -14 10 0 6 -5 10 -11 10 -6 0 -25 11
-43 25 -18 14 -37 25 -43 25 -5 0 -18 10 -29 21 -10 12 -28 26 -39 31 -11 5
-65 34 -120 63 -132 72 -223 115 -241 115 -8 0 -14 5 -14 10 0 6 -13 10 -29
10 -16 0 -31 4 -33 8 -4 11 -125 60 -168 68 -17 4 -33 11 -36 15 -3 5 -16 9
-28 9 -21 0 -62 14 -121 40 -11 5 -36 11 -55 14 -54 8 -143 27 -165 37 -20 8
-35 10 -217 28 -53 5 -105 14 -116 20 -25 13 -619 15 -642 2z m541 -220 c96
-4 180 -10 186 -14 6 -4 44 -10 85 -13 40 -3 82 -9 93 -14 11 -5 38 -11 60
-14 56 -7 152 -30 161 -39 4 -4 18 -7 31 -7 13 0 31 -4 41 -9 17 -9 39 -16
152 -53 36 -12 67 -24 70 -27 3 -4 23 -12 45 -20 93 -31 275 -119 275 -133 0
-4 6 -8 14 -8 17 0 51 -17 93 -47 17 -13 34 -23 37 -23 8 0 101 -64 104 -72 2
-5 9 -8 16 -8 7 0 34 -18 59 -40 25 -22 50 -40 56 -40 6 0 11 -4 11 -8 0 -4
12 -15 28 -25 15 -9 66 -54 115 -99 48 -46 93 -88 100 -94 6 -6 38 -39 69 -75
31 -35 77 -86 102 -114 25 -27 46 -53 46 -57 0 -4 21 -38 48 -75 26 -38 54
-81 62 -98 8 -16 20 -37 26 -45 7 -8 32 -54 56 -103 25 -48 47 -85 49 -82 3 2
6 -10 7 -28 2 -18 7 -33 12 -35 6 -2 10 -14 10 -27 0 -12 7 -28 15 -35 8 -7
15 -23 15 -36 0 -12 5 -26 10 -29 6 -3 10 -21 10 -39 0 -17 5 -37 11 -43 13
-13 27 -72 37 -153 4 -30 12 -61 16 -69 39 -62 37 -654 -2 -693 -7 -7 -12 -36
-12 -64 0 -29 -4 -55 -9 -58 -5 -3 -11 -20 -14 -38 -2 -18 -9 -46 -15 -63 -6
-16 -16 -50 -23 -75 -13 -53 -16 -60 -28 -80 -5 -8 -13 -26 -19 -40 -6 -14
-19 -45 -31 -70 -11 -25 -25 -56 -30 -70 -11 -25 -32 -61 -41 -70 -3 -3 -14
-23 -25 -45 -28 -56 -88 -148 -102 -158 -7 -4 -13 -15 -13 -22 0 -8 -4 -15
-10 -15 -5 0 -10 -7 -10 -15 0 -8 -4 -15 -9 -15 -5 0 -12 -9 -16 -19 -3 -10
-33 -47 -65 -82 -33 -35 -60 -64 -60 -65 0 -4 -195 -192 -230 -222 -68 -59
-126 -102 -235 -175 -177 -119 -208 -137 -230 -137 -7 0 -15 -4 -17 -9 -4 -13
-167 -91 -190 -91 -10 0 -18 -3 -18 -7 0 -5 -21 -16 -48 -26 -26 -10 -59 -25
-74 -33 -14 -8 -35 -14 -46 -14 -12 0 -23 -4 -26 -9 -3 -5 -20 -11 -38 -14
-18 -2 -58 -14 -88 -26 -30 -11 -65 -21 -78 -21 -13 0 -33 -5 -45 -12 -21 -11
-43 -16 -187 -37 -30 -4 -66 -12 -80 -18 -14 -6 -51 -11 -83 -12 -31 -1 -69
-6 -83 -11 -33 -13 -607 -13 -654 -1 -19 6 -59 12 -87 15 -29 3 -62 10 -72 16
-11 5 -42 10 -70 10 -27 0 -53 4 -56 10 -3 5 -25 10 -48 10 -23 0 -55 7 -71
15 -59 31 -66 27 -222 -141 -47 -50 -177 -164 -187 -164 -5 0 -19 -10 -31 -22
-11 -13 -40 -32 -63 -43 -24 -11 -43 -23 -43 -26 0 -4 -11 -10 -25 -13 -14 -4
-25 -11 -25 -16 0 -6 -6 -10 -13 -10 -7 0 -45 -16 -84 -35 -39 -19 -76 -35
-81 -35 -5 0 -23 -7 -38 -15 -16 -8 -37 -15 -46 -15 -9 0 -20 -4 -23 -10 -3
-5 -25 -10 -49 -10 -23 0 -46 -4 -52 -9 -15 -14 -58 -21 -74 -11 -13 8 -11 17
12 62 14 29 29 60 32 68 3 8 10 22 15 30 21 35 61 128 61 144 0 9 4 24 9 34 5
9 17 42 26 72 10 30 21 60 25 65 4 6 10 24 13 40 20 104 31 145 39 145 4 0 8
55 8 122 0 99 -3 125 -17 140 -9 10 -20 18 -25 18 -5 0 -31 17 -58 38 -27 20
-79 59 -117 86 -37 28 -72 55 -78 61 -5 6 -21 19 -35 28 -33 23 -240 228 -240
238 0 4 -33 42 -72 84 -40 42 -75 82 -77 88 -4 11 -14 24 -38 52 -7 7 -13 21
-13 29 0 9 -3 16 -7 16 -10 0 -93 123 -93 138 0 7 -4 12 -10 12 -5 0 -10 11
-10 24 0 13 -4 26 -8 28 -5 2 -23 35 -41 73 -18 39 -37 78 -42 87 -5 10 -9 27
-9 37 0 11 -4 22 -9 26 -5 3 -13 20 -17 37 -7 34 -10 42 -37 96 -9 19 -17 49
-17 67 0 19 -5 37 -10 40 -6 3 -10 26 -10 51 0 25 -5 55 -12 67 -11 20 -17 73
-35 312 -6 84 10 278 29 355 6 25 14 68 19 95 12 77 24 128 37 152 7 12 12 33
12 47 0 14 5 28 10 31 6 3 10 13 10 22 0 8 7 31 16 51 9 21 20 46 24 57 15 40
112 230 124 245 7 8 20 31 29 50 8 19 24 44 34 55 10 11 27 37 38 58 11 20 23
37 27 37 3 0 10 9 13 20 4 12 31 46 61 78 30 31 69 74 87 96 42 51 79 88 162
161 37 33 75 67 84 76 9 8 32 26 51 39 19 13 55 41 79 62 24 21 50 38 57 38 7
0 14 3 16 8 3 7 95 72 103 72 3 0 29 16 59 35 30 19 62 35 71 35 8 0 15 4 15
10 0 5 15 16 33 24 18 7 52 25 75 40 23 14 49 26 57 26 8 0 23 4 33 9 44 24
87 41 104 41 10 0 18 5 18 10 0 6 10 10 23 10 12 0 31 7 41 15 11 8 30 15 42
15 13 0 26 5 29 10 3 6 16 10 28 10 12 0 35 7 51 15 15 8 37 15 47 15 11 0 27
4 37 10 18 10 82 25 167 41 158 28 270 40 439 49 104 5 191 12 195 15 3 4 15
3 26 0 11 -4 99 -10 196 -14z"/>
<path d="M1992 3613 l3 -438 195 -5 195 -5 -3 -35 c-2 -19 -8 -43 -13 -52 -5
-9 -9 -37 -9 -62 0 -25 -4 -48 -10 -51 -5 -3 -10 -18 -10 -32 0 -21 -20 -69
-75 -174 -5 -10 -13 -19 -17 -19 -5 0 -8 -4 -8 -10 0 -5 -8 -18 -17 -28 -10
-10 -27 -29 -39 -43 -27 -31 -101 -99 -109 -99 -3 0 -18 -11 -33 -25 -15 -14
-32 -25 -39 -25 -10 0 -13 -46 -13 -199 l0 -200 38 19 c20 10 44 21 52 24 8 4
29 15 45 26 17 11 37 23 45 26 8 4 36 22 61 41 26 18 50 33 53 33 3 0 34 27
69 59 34 33 74 70 90 83 15 13 27 29 27 36 0 7 3 12 8 12 4 0 23 25 42 55 19
30 38 54 43 55 4 0 7 6 7 14 0 18 32 76 43 76 4 0 7 9 7 19 0 11 4 22 9 25 5
3 12 22 15 41 4 19 11 35 16 35 6 0 10 15 10 34 0 19 5 38 10 41 6 3 10 23 10
43 0 20 8 51 17 67 14 27 16 88 17 550 l1 520 -368 3 -367 2 2 -437z"/>
<path d="M3279 3948 c0 -57 -1 -254 -1 -438 l-1 -335 189 -6 c104 -3 189 -6
190 -7 1 -4 -15 -107 -24 -157 -6 -27 -15 -66 -22 -85 -23 -61 -83 -180 -92
-180 -4 0 -8 -7 -8 -15 0 -16 -144 -165 -161 -165 -6 0 -24 -14 -41 -30 l-30
-31 -2 -175 c0 -97 2 -181 6 -187 6 -11 32 -3 78 24 8 5 36 19 63 31 26 12 47
25 47 30 0 4 5 8 11 8 6 0 17 6 24 12 32 29 45 38 53 38 9 0 128 115 172 166
44 52 105 138 126 178 10 21 27 52 36 70 9 17 17 39 18 48 0 9 5 20 10 23 6 3
10 16 10 28 0 13 6 31 14 42 7 11 16 36 19 55 3 19 13 80 23 135 14 83 18 180
21 563 l3 462 -365 0 -365 0 -1 -102z"/>
</g>
</svg>
