<?xml version="1.0" standalone="no"?>
<!DOCTYPE svg PUBLIC "-//W3C//DTD SVG 20010904//EN"
 "http://www.w3.org/TR/2001/REC-SVG-20010904/DTD/svg10.dtd">
<svg version="1.0" xmlns="http://www.w3.org/2000/svg"
 width="32.000000pt" height="32.000000pt" viewBox="0 0 32.000000 32.000000"
 preserveAspectRatio="xMidYMid meet">

<g transform="translate(0.000000,32.000000) scale(0.100000,-0.100000)"
fill="orangered" stroke="none">
<path d="M20 246 c0 -35 5 -58 15 -66 13 -11 15 -6 15 39 l0 51 68 0 c77 0
126 -23 143 -68 15 -39 4 -92 -26 -121 -22 -23 -36 -26 -105 -29 l-80 -4 0 40
c0 23 -6 45 -15 52 -13 11 -15 4 -15 -54 l0 -66 88 0 c102 0 145 17 174 71 36
68 12 156 -53 191 -25 13 -56 18 -121 18 l-88 0 0 -54z"/>
<path d="M90 211 c0 -10 7 -24 15 -31 12 -10 15 -9 15 4 0 23 59 18 74 -6 26
-42 -46 -77 -85 -42 -18 16 -19 16 -19 -14 0 -31 1 -32 45 -32 51 0 95 32 95
70 0 38 -44 70 -95 70 -37 0 -45 -3 -45 -19z"/>
</g>
</svg>
